<svg height="207" viewBox="0 0 187 207" fill="none"
  xmlns="http://www.w3.org/2000/svg">
  <path d="M135.38 112.912C135.38 112.912 123.256 96.8943 132.822 91.6663C142.388 86.4383 176.204 98.1179 181.32 66.9722C186.548 35.7152 184.657 16.8053 174.424 8.46274C163.634 -0.213566 113.801 -3.10567 93 5.1257C91.8877 5.57064 83.8788 9.35262 82.7664 20.1424C79.7631 49.3971 76.426 92.1112 108.017 101.232C124.146 105.904 135.38 112.912 135.38 112.912Z" fill="#9BC6CE"/>
  <path d="M24.0345 8.12904C53.178 7.79533 75.3137 2.12236 76.0924 34.158C76.871 66.1936 73.8677 88.4405 68.9734 92.2225C64.079 96.0044 53.5117 100.565 47.1713 103.123C40.7197 105.793 40.7197 105.793 40.7197 105.793C40.7197 105.793 53.5117 96.6719 47.5051 93.2236C41.4984 89.8865 18.4728 96.2269 9.46278 88.3293C0.341538 80.4316 1.89882 66.9722 1.45388 55.6263C1.12018 46.505 -7.22242 8.46274 24.0345 8.12904Z" fill="#DBE8F2"/>
  <path d="M30.375 136.049C32.266 137.495 34.1569 138.607 36.0479 137.829C37.8277 137.05 39.7187 130.821 40.0524 127.039C40.3861 123.368 40.9423 119.364 39.385 117.028C39.0513 117.139 38.7176 117.473 38.3839 117.918C36.9378 120.031 36.2704 122.145 31.2648 121.588C26.2593 121.032 30.2637 126.928 27.2604 125.37C26.2593 124.925 23.1447 122.367 23.4784 125.815C23.5896 126.038 23.5896 126.149 23.7009 126.372C23.8121 126.816 23.8121 127.261 23.9234 127.595C23.7009 129.041 23.5896 131.266 22.811 133.824C21.8099 137.161 20.5863 138.607 19.8077 139.275C16.2482 139.386 14.1347 143.947 13.0224 149.731C11.1314 149.175 9.46284 148.285 8.01679 147.395C-0.437046 141.611 -0.881985 129.486 7.01568 127.15C14.9133 124.814 14.3572 118.474 18.2504 109.909C22.2548 101.344 37.2715 106.572 41.1647 111.911C44.9467 117.25 44.0568 139.386 39.0513 145.838C38.0502 147.172 36.3816 148.285 34.3794 149.175C32.7109 145.504 31.4873 143.279 30.1525 141.944C29.5963 140.165 29.93 137.94 30.375 136.049Z" fill="#0F3753"/>
  <path d="M25.1469 164.747C27.3716 163.635 28.7064 161.967 29.4851 160.187C29.5963 164.859 29.8188 168.641 30.3749 169.419C31.1536 170.643 46.1703 170.198 48.6174 169.642C49.0624 169.531 49.6185 169.531 50.1747 169.531C51.5095 169.419 54.8466 168.529 55.4027 167.64C56.4039 166.527 57.0713 165.081 58.9623 163.301C63.3004 159.408 61.2982 162.523 59.8521 165.192C59.5184 165.86 59.4072 166.305 59.5184 166.638C59.6297 166.638 59.8521 166.638 59.9634 166.527C63.0779 165.86 65.5251 163.858 68.6397 161.744C70.6419 162.3 64.524 168.641 62.9667 169.531C61.4094 170.42 54.6241 172.979 52.1769 173.758C45.9478 175.76 35.3805 178.652 32.0435 178.652C24.9244 178.652 25.5918 177.095 23.9233 173.98C23.7009 173.535 23.3672 172.756 23.0334 171.867" fill="#E8E6DE"/>
  <path d="M31.3761 188.218C30.2637 181.099 36.9378 175.871 39.8299 170.198C41.0535 167.973 41.1647 165.971 40.7198 163.969C40.0524 160.409 37.6052 157.406 36.4929 154.514C35.7142 152.4 34.9356 150.621 34.2682 149.063C33.1558 146.616 31.821 143.057 29.7075 141.388C26.7042 138.941 21.9211 138.051 18.2504 139.497C14.6909 140.943 13.4673 146.283 12.7999 149.62C11.3538 156.405 11.2426 164.97 11.4651 169.864C12.1325 181.655 8.35048 184.992 4.67973 190.554C0.00787748 197.562 0.675285 205.459 0.230347 206.461H37.2715C37.1603 203.235 32.1547 193.669 31.3761 188.218Z" fill="#9BC6CE"/>
  <path d="M22.6998 133.713C23.256 131.711 23.1447 129.486 23.8121 127.595C25.4806 127.706 29.4851 132.712 29.93 133.602C31.1536 135.938 29.3739 139.275 30.0413 141.944C30.1525 142.389 30.2637 142.723 30.4862 143.168C31.3761 144.836 21.0313 142.834 19.029 140.165C18.8066 139.942 19.1403 139.831 19.6964 139.275C20.4751 138.496 21.6987 137.161 22.6998 133.713Z" fill="#D9D8D0"/>
  <path d="M24.0346 129.041C23.8121 128.596 23.8121 128.04 23.8121 127.484C23.8121 127.039 23.7009 126.594 23.5896 126.26C23.4784 126.038 23.4784 125.927 23.3672 125.704C23.0335 122.256 26.148 124.703 27.1492 125.259C30.1525 126.705 26.148 120.81 31.1536 121.477C36.1592 122.033 36.9378 119.92 38.2726 117.806C38.6063 117.362 38.94 117.028 39.2737 116.917C40.831 119.253 40.1636 123.257 39.9411 126.928C39.6074 130.71 37.7164 137.05 35.9367 137.717C34.0457 138.496 32.1547 137.384 30.2637 135.938C29.2626 135.159 28.3727 134.38 27.4829 133.713C25.8143 132.489 25.0357 131.6 24.0346 129.041Z" fill="#E8E6DE"/>
  <path d="M42.2771 177.317C44.613 180.654 43.6119 181.878 52.2882 182.545C61.6319 183.212 70.7531 182.1 74.4239 182.545C78.0946 182.99 80.4305 184.659 83.8788 183.991C87.3271 183.324 90.3304 182.99 87.9945 184.77C85.6586 186.55 80.5418 188.774 76.9823 187.773C73.534 186.772 71.643 185.66 66.1925 187.328C60.4083 188.997 44.7242 190.331 41.7209 189.442C40.4973 189.108 37.049 185.103 33.1558 180.098C27.1491 172.311 19.9189 162.189 18.2504 159.075C14.4684 152.289 18.9178 144.614 27.0379 153.068C31.376 157.628 35.3805 166.082 38.6063 171.867C38.94 171.31 39.2737 170.643 39.6074 170.087" fill="#E8E6DE"/>
  <path d="M79.6519 185.548L59.7409 166.75C58.9623 165.971 59.1848 164.859 60.1859 164.08L78.4284 151.844C79.4295 151.177 80.9868 151.177 81.7654 151.956L101.676 170.754C102.455 171.533 102.233 172.645 101.231 173.424L82.989 185.66C81.8766 186.327 80.4306 186.216 79.6519 185.548Z" fill="#DDD7CA"/>
  <path d="M81.9878 182.656L63.6341 165.304C62.8555 164.636 63.0779 163.524 64.0791 162.857L78.3171 153.29C79.207 152.623 80.653 152.734 81.3204 153.402L99.6742 170.754C100.453 171.422 100.23 172.534 99.2292 173.201L84.9912 182.768C84.1013 183.435 82.7665 183.324 81.9878 182.656Z" fill="white"/>
  <path d="M71.4451 175.744C71.9891 175.645 72.3675 175.222 72.2904 174.799C72.2133 174.376 71.7099 174.113 71.1659 174.212C70.622 174.311 70.2435 174.735 70.3206 175.158C70.3977 175.581 70.9012 175.843 71.4451 175.744Z" fill="white"/>
  <path d="M55.4027 167.64C56.4038 166.527 57.0712 165.081 58.9622 163.301C63.3004 159.408 61.2982 162.523 59.8521 165.192C59.5184 165.86 59.4072 166.305 59.5184 166.638" fill="#E8E6DE"/>
  <path d="M52.2882 182.545C61.6319 183.212 70.7532 182.1 74.4239 182.545C78.0947 182.99 80.4306 184.659 83.8789 183.991C87.3271 183.324 90.3305 182.99 87.9945 184.77C85.6586 186.55 80.5418 188.774 76.9823 187.773C73.534 186.772 71.643 185.66 66.1925 187.328" fill="#E8E6DE"/>
  <path d="M185.436 176.427C188.551 182.323 185.214 191.333 181.432 198.34C180.208 186.216 175.536 163.969 171.977 152.289C177.205 159.964 181.988 170.087 185.436 176.427Z" fill="#E8E6DE"/>
  <path d="M135.825 206.461H181.098C181.098 206.461 181.098 206.461 181.209 206.349C181.877 205.571 181.877 202.567 181.432 198.229C180.208 186.105 175.536 163.858 171.977 152.178C171.643 150.954 171.309 149.953 170.976 148.952C168.195 140.943 163.968 133.491 154.958 132.712C145.725 131.933 140.608 143.279 139.496 150.843C138.05 159.853 137.049 168.863 136.27 177.984C136.048 181.433 135.825 184.881 135.714 188.329C135.492 192.89 135.158 197.451 134.491 202.011C134.157 204.013 134.713 205.348 135.825 206.461Z" fill="#35B399"/>
  <path d="M149.507 134.937C149.396 134.825 149.619 133.602 149.952 132.378C150.063 131.6 150.286 130.71 150.286 130.154C152.733 126.928 154.068 121.811 153.178 119.141C152.288 116.36 150.508 117.362 148.284 119.475C146.059 121.588 145.058 121.588 143.167 120.142C141.832 119.141 140.942 120.031 140.608 120.699C140.497 120.254 140.386 120.031 140.164 120.031C138.94 120.031 136.27 119.809 137.271 118.585C138.273 117.362 140.72 114.024 140.608 111.911C140.497 110.799 140.72 109.019 141.053 107.573C141.943 107.462 143.167 107.239 144.613 106.572C146.838 105.571 148.395 105.348 148.061 109.019C147.728 112.69 147.95 114.247 149.73 112.69C151.509 111.021 153.067 110.465 154.513 115.248C156.07 120.031 155.848 120.476 157.627 121.477C157.961 121.7 158.295 121.7 158.517 121.7C158.629 125.815 159.185 131.266 159.185 133.157C159.185 133.379 159.185 133.491 159.185 133.602C159.073 135.27 150.508 135.938 149.507 134.937Z" fill="#E8E6DE"/>
  <path d="M157.739 121.255C155.959 120.254 156.07 119.809 154.624 115.026C153.067 110.242 151.621 110.799 149.841 112.467C148.061 114.136 147.839 112.467 148.173 108.796C148.506 105.126 146.949 105.348 144.724 106.349C143.278 107.017 142.055 107.239 141.165 107.35C140.609 107.35 140.164 107.35 139.83 107.35C138.94 107.35 134.491 104.458 139.051 100.899C141.054 99.3415 144.168 100.788 145.725 98.8966C147.283 97.1168 152.177 94.3359 154.624 95.8932C157.071 97.4505 156.404 97.7842 158.74 98.6741C162.188 99.8977 161.854 99.564 161.632 102.234C161.521 104.903 164.302 104.903 163.3 108.574C162.188 112.245 159.296 114.581 159.518 116.694C159.741 118.474 159.852 121.143 158.74 121.477C158.406 121.588 158.072 121.477 157.739 121.255Z" fill="#0F3753"/>
  <path d="M143.167 120.031C144.947 121.477 145.948 121.477 148.284 119.364C150.508 117.25 152.399 116.249 153.178 119.03C153.957 121.7 152.622 126.816 150.286 130.042C150.175 130.265 149.952 130.376 149.841 130.598C147.171 133.713 140.164 133.824 139.941 129.041C139.83 124.258 140.497 120.921 140.497 120.921C140.497 120.921 140.608 120.81 140.72 120.587C141.053 120.031 141.832 119.03 143.167 120.031Z" fill="#0F3753"/>
  <path d="M161.187 165.304C161.187 165.415 161.409 165.526 161.409 165.526C161.521 165.526 162.299 165.304 163.523 160.966C165.191 154.736 166.304 148.952 166.304 148.952C166.304 148.73 166.637 148.507 166.86 148.507C167.082 148.507 167.305 148.841 167.305 149.063C167.305 149.175 166.304 154.959 164.524 161.188C163.3 165.749 162.188 166.416 161.521 166.416H161.409C160.964 166.416 160.631 166.194 160.408 165.971C160.631 165.637 160.742 165.304 160.853 164.97C161.076 165.192 161.187 165.192 161.187 165.304Z" fill="#105C5A"/>
  <path d="M146.949 156.405C147.839 153.846 150.286 147.172 150.286 147.172C150.397 146.95 150.62 146.839 150.953 146.839C151.176 146.95 151.398 147.172 151.287 147.506C151.287 147.617 148.84 154.18 147.95 156.739C147.728 157.517 147.616 158.073 147.505 158.63C147.171 159.075 146.838 159.631 146.393 160.187C146.393 159.519 146.393 158.296 146.949 156.405Z" fill="#105C5A"/>
  <path d="M94.5574 148.618C96.3371 150.065 97.7832 152.4 99.0068 154.403C100.23 156.405 104.791 159.186 105.013 157.184C105.236 155.181 101.009 152.4 103.234 152.734C105.458 152.957 109.018 156.182 111.243 161.188C113.467 166.194 114.468 168.418 120.253 172.2C126.037 175.982 130.486 181.21 132.488 182.211C133.823 182.879 135.158 181.655 136.604 179.542C137.383 178.429 138.273 176.983 139.162 175.537C141.053 172.423 143.946 164.525 146.393 160.298C146.726 159.631 147.06 159.075 147.505 158.741C148.172 157.962 148.729 157.628 149.285 157.628C152.177 157.74 162.077 163.079 161.521 164.414C161.409 164.525 161.298 164.859 161.076 165.415C160.964 165.637 160.742 165.971 160.631 166.416C158.517 170.532 152.956 180.32 145.28 189.219C141.165 194.002 138.05 195.782 135.269 195.782C131.821 195.782 129.04 193.001 125.481 190.554C119.251 186.105 111.243 173.869 108.239 169.086C105.236 164.303 98.4506 160.854 97.0045 157.628C95.5585 153.846 92.4439 146.95 94.5574 148.618Z" fill="#E8E6DE"/>
  <path d="M99.8967 158.407C100.119 159.075 100.564 159.519 101.009 159.297L106.348 156.739C106.793 156.516 107.016 155.737 106.793 155.07L102.455 138.385C102.233 137.717 101.788 137.273 101.343 137.495L95.8922 140.053C95.4473 140.276 95.2248 141.054 95.4473 141.722L99.8967 158.407Z" fill="white"/>
  <path d="M99.8067 143.173C100.175 143.167 100.467 142.714 100.457 142.161C100.448 141.608 100.142 141.165 99.7734 141.171C99.4049 141.177 99.1135 141.63 99.1227 142.183C99.1319 142.736 99.4381 143.179 99.8067 143.173Z" fill="#B4B4B4"/>
  <path d="M105.013 157.184C105.236 155.181 101.009 152.4 103.234 152.734C105.458 152.957 109.018 156.182 111.243 161.188" fill="#E8E6DE"/>
</svg>
