<svg width="89" height="153" viewBox="0 0 89 153" fill="none"
  xmlns="http://www.w3.org/2000/svg">
  <path d="M88.2 84C88.1 81.7 87.9 79.5 87.6 77.2C87.2 74.4 86.7 71.6 86.1 68.8C84.1 60.7 80.8 53.2 76 46.3C73.4 42.6 70.5 39.1 67.5 35.7C64.7 32.5 61.8 29.3 59 26.1C56.3 23 53.8 19.8 51.6 16.4C48.3 11.4 45.8 6 44.2 0.200002C44.2 0.100002 44.1 0.100002 44 -0.0999985C44 0.200002 44 0.400002 44 0.500002C43.6 2.5 43.1 4.5 42.4 6.4C41.4 9.1 40 11.6 38.5 14C36.5 17.1 34.3 20 31.9 22.8C28.5 26.8 25.1 30.7 21.7 34.6C18.9 37.8 16.1 41.1 13.5 44.6C9.30002 50.4 6.00002 56.5 3.90002 63.3C2.80002 66.9 1.80002 70.6 1.20002 74.4C0.900024 76.5 0.600024 78.5 0.400024 80.6C0.200024 82.2 0.200024 83.7 0.100024 85.3C-0.0999765 88.5 2.3514e-05 91.7 0.300024 94.9C0.500024 97.4 1.00002 99.8 1.60002 102.2C3.90002 110.9 8.20002 118.3 14.8 124.4C18.1 127.5 21.9 129.8 26.2 131.3C29.9 132.6 33.8 133.2 37.7 133.5C38.5 133.6 39.2 133.6 40 133.6C40.4 133.6 40.6 133.7 40.7 134.1C40.8 134.5 41 135 41.1 135.4C41.5 137 41.6 138.6 41.6 140.3C41.6 142.5 41.5 144.7 41.5 146.9C41.5 148.4 41.5 150 41.6 151.5C41.6 152 41.7 152.4 41.8 152.9C43.4 152.9 44.9 152.9 46.6 152.9C46.7 152 46.8 151.1 46.8 150.3C46.9 147.8 46.8 145.3 46.7 142.8C46.6 140.8 46.6 138.7 46.9 136.7C47 135.7 47.3 134.8 47.7 133.9C47.9 133.5 48.1 133.4 48.5 133.4C51.6 133.4 54.7 133.2 57.7 132.6C60.5 132 63.3 131.2 65.8 129.8C69.5 127.8 72.8 125.3 75.7 122.3C80.5 117.3 83.9 111.4 86 104.7C87.5 99.8 88.2 94.8 88.3 89.7C88.3 87.8 88.3 85.9 88.2 84ZM45.5 114.1C45.5 114.2 45.5 114.4 45.5 114.6C45.7 114.5 45.8 114.4 45.9 114.3C47.8 113 49.5 111.6 51.1 110C52.6 108.6 54.1 107.2 55.6 105.8C57.9 103.6 60.3 101.6 62.8 99.5C64 98.5 65.2 97.4 66.2 96.3C66.7 95.7 67.2 95.2 67.8 94.7C68.2 94.3 68.8 94 69.3 93.8C69.9 93.6 70.6 93.6 71.2 93.8C71.3 94.1 71.2 94.4 71.1 94.6C70.9 95.3 70.6 96 70.1 96.6C69.6 97.2 69 97.9 68.4 98.4C61.4 104.4 54.6 110.7 47.7 116.7C47.1 117.3 46.4 117.8 45.8 118.4C45.6 118.6 45.5 118.8 45.5 119C45.5 119.5 45.5 120 45.5 120.5C45.6 122.2 45.6 123.9 45.7 125.6C45.7 126.4 45.7 127.3 45.5 128.1C45.4 128.4 45.3 128.8 45.1 129.1C44.6 129.9 43.6 129.9 43.1 129.1C42.8 128.6 42.7 127.9 42.7 127.3C42.7 126.1 42.8 124.9 42.8 123.7C42.9 122.3 43 121 42.9 119.6C42.9 118.9 42.7 118.3 42.2 117.8C41.7 117.2 41.2 116.6 40.6 116.1C39.7 115.3 38.7 114.5 37.8 113.7C36.2 112.3 34.6 110.9 33 109.5C29.5 106.4 26.1 103.4 22.6 100.3C21.8 99.6 21.1 99 20.3 98.4C19.6 97.8 18.8 97.1 18.3 96.3C17.8 95.6 17.5 94.9 17.3 94.1C17.3 93.9 17.3 93.8 17.3 93.6C18 93.4 18.6 93.4 19.2 93.6C19.8 93.8 20.3 94.1 20.8 94.5C21.3 95 21.9 95.5 22.3 96C23.3 97.1 24.3 98.1 25.3 99C30.9 103.9 36.6 108.9 42.2 113.9C42.4 114 42.5 114.2 42.8 114.4C42.8 114 42.7 113.7 42.7 113.4C42.5 111.9 42.5 110.5 42.7 109C42.9 107 43.2 105.1 43.3 103.1C43.4 101.6 43.4 100.1 43 98.7C42.8 98 42.5 97.4 42.1 96.9C41.4 96.2 40.8 95.5 40.1 95C35.2 91.1 30.7 86.7 26.1 82.5C24.1 80.7 22 78.8 20 76.9C19.6 76.5 19.2 76.2 18.7 75.9C18.3 75.6 17.9 75.2 17.5 74.9C17.1 74.5 17 74 17.2 73.4C17.3 73.1 17.4 73 17.7 72.9C18.6 72.8 19.3 73 20.1 73.4C20.7 73.8 21.3 74.3 21.8 74.8C21.9 74.9 21.9 74.9 22 75C23.7 77 25.7 78.6 27.6 80.3C32.5 84.7 37.5 89 42.5 93.4C42.6 93.5 42.7 93.6 42.9 93.7C42.9 93.3 42.8 93 42.8 92.7C42.6 91.1 42.6 89.4 42.8 87.8C43 85.7 43.3 83.6 43.4 81.5C43.5 79.9 43.5 78.3 43.1 76.7C43 76.2 42.8 75.7 42.4 75.3C41.9 74.8 41.5 74.3 40.9 73.8C39.8 72.8 38.6 71.8 37.5 70.8C34.2 67.8 30.9 64.8 27.6 61.8C27 61.3 26.4 60.9 25.9 60.4C25.4 60 25 59.6 24.5 59.2C23.9 58.6 23.5 57.9 23.4 57.1C23.3 56.4 23.4 56.3 24.1 56.3C24.7 56.3 25.2 56.5 25.8 56.7C26.5 57 27.1 57.5 27.6 58C30.9 61 34.1 64.1 37.4 67C39.1 68.5 40.8 69.9 42.5 71.4C42.6 71.5 42.8 71.6 42.9 71.7C42.9 71.3 42.8 71 42.8 70.7C42.6 69.2 42.6 67.6 42.8 66.1C43 64 43.3 61.9 43.4 59.8C43.5 58.3 43.4 56.8 43.1 55.3C42.9 54.6 42.6 53.9 42.1 53.4C41.6 52.9 41 52.4 40.5 51.9C40.2 51.6 39.9 51.4 39.5 51.2C37.7 50 36.1 48.6 34.5 47.1C33.9 46.6 33.3 46 32.8 45.3C32.2 44.6 31.8 43.7 31.6 42.8C31.6 42.6 31.6 42.5 31.5 42.3C31.7 42.3 31.9 42.3 32.1 42.3C33.4 42.5 34.6 43.1 35.6 43.9C36.7 44.7 37.6 45.7 38.5 46.6C39.4 47.5 40.3 48.4 41.3 49.3C41.7 49.7 42.1 49.9 42.6 50.2C42.7 50.3 42.8 50.3 43 50.4C43 50.2 43 50.1 43 49.9C43 47.1 43 44.4 43 41.6C43 38.6 43 35.5 43.1 32.5C43.1 31.7 43.2 30.9 43.3 30.1C43.3 30 43.3 29.9 43.4 29.8C43.7 29.2 44.2 28.8 44.9 29.3C45.2 29.5 45.3 29.8 45.5 30.1C45.8 30.6 45.9 31.2 45.9 31.8C46.1 33.2 46 34.6 46 36C46 37 45.9 38.1 45.9 39.1C45.9 42.6 45.9 46.2 45.9 49.7C45.9 49.9 45.9 50 45.9 50.2C46.1 50.1 46.3 50 46.5 50C47.3 49.6 47.9 49.1 48.5 48.5C49.3 47.8 50 47 50.8 46.2C51.7 45.2 52.6 44.3 53.7 43.5C54.7 42.8 55.8 42.2 57 42C57.2 42 57.4 42 57.6 41.9C57.6 42.1 57.6 42.2 57.6 42.3C57.4 43.4 56.9 44.3 56.2 45.1C55.6 45.8 55 46.4 54.3 47C51.9 49 49.5 51 47.1 53.1C46.7 53.4 46.4 53.7 46 54C45.8 54.1 45.8 54.3 45.8 54.5C45.8 54.6 45.8 54.6 45.8 54.7C45.8 60.1 45.8 65.5 45.8 70.9C45.8 71 45.8 71.2 45.8 71.3C46 71.4 46.1 71.2 46.2 71.1C47.9 69.9 49.5 68.6 51.1 67.1C53.4 65 55.7 62.8 58 60.7C59.2 59.6 60.3 58.6 61.5 57.5C62 57 62.6 56.6 63.2 56.2C63.8 55.8 64.6 55.6 65.3 55.7C65.6 55.7 65.6 55.8 65.6 56.1C65.6 56.6 65.5 57.1 65.3 57.5C65 58 64.7 58.4 64.4 58.9C64.1 59.2 63.8 59.5 63.5 59.8C61.5 61.6 59.5 63.4 57.4 65.2C53.6 68.5 49.9 71.8 46.1 75.1C45.8 75.3 45.7 75.6 45.7 75.9C45.7 81.5 45.7 87 45.7 92.6C45.7 92.8 45.7 92.9 45.7 93.1C45.9 93 46.1 92.9 46.2 92.8C48.1 91.5 49.8 90 51.5 88.5C53.6 86.5 55.7 84.5 57.8 82.5C59.4 81.1 61 79.7 62.7 78.4C64 77.3 65.4 76.1 66.5 74.8C67 74.2 67.6 73.6 68.3 73.1C68.9 72.6 69.6 72.3 70.4 72.2C70.8 72.2 71.2 72.2 71.6 72.4C71.6 72.7 71.5 72.9 71.5 73.2C71.3 73.8 71 74.4 70.6 74.9C70.1 75.6 69.5 76.2 68.8 76.8C67.3 78.1 65.8 79.3 64.3 80.6C59.7 84.7 55 88.9 50.4 93C48.9 94.3 47.5 95.6 46 96.9C45.8 97.1 45.7 97.3 45.7 97.6C45.5 103.7 45.5 108.9 45.5 114.1Z" fill="#35B399"/>
</svg>
