<svg width="102" height="140" viewBox="0 0 102 140" fill="none"
  xmlns="http://www.w3.org/2000/svg">
  <path d="M89.0871 124.095C89.0871 132.498 82.2406 139.344 73.9419 139.344H16.058C7.65556 139.344 0.809082 132.498 0.809082 124.095V16.2116C0.809082 7.80913 7.65556 0.962654 16.058 0.962654H73.9419C82.3444 0.962654 89.0871 7.80913 89.0871 16.2116V124.095Z" fill="#0F3753"/>
  <path d="M85.4563 20.4647H4.54346V119.739H85.4563V20.4647Z" fill="#E8E6DE"/>
  <path d="M67.3028 130.008C67.3028 131.253 66.2655 132.187 65.1244 132.187H24.8754C23.6306 132.187 22.697 131.149 22.697 130.008C22.697 128.764 23.7344 127.83 24.8754 127.83H65.1244C66.2655 127.83 67.3028 128.867 67.3028 130.008Z" fill="#EBBB53"/>
  <path d="M67.3028 12.3734C67.3028 13.6183 66.2655 14.5519 65.1244 14.5519H24.8754C23.6306 14.5519 22.697 13.5145 22.697 12.3734C22.697 11.1286 23.7344 10.195 24.8754 10.195H65.1244C66.2655 10.195 67.3028 11.2324 67.3028 12.3734Z" fill="#EBBB53"/>
  <path d="M26.639 28.0373C22.0747 28.0373 18.444 31.7718 18.444 36.2324C18.444 40.7967 22.1784 44.4274 26.639 44.4274C31.2033 44.4274 34.834 40.6929 34.834 36.2324C34.834 31.7718 31.0996 28.1411 26.639 28.0373Z" fill="white"/>
  <path d="M15.4357 42.9751C13.5685 42.9751 12.0125 44.5311 12.0125 46.3983C12.0125 48.2656 13.5685 49.8216 15.4357 49.8216C17.3029 49.8216 18.8589 48.2656 18.8589 46.3983C18.8589 44.5311 17.3029 42.9751 15.4357 42.9751Z" fill="white"/>
  <path d="M88.1534 46.3983L37.7385 47.0207C30.4771 47.1245 24.668 53.1411 24.668 60.4025L24.9792 86.1286C25.0829 93.39 31.0995 99.3029 38.3609 99.1992L50.9128 98.9917L51.1202 118.805L70.6223 98.7842L88.6721 98.5768C95.9335 98.473 101.743 92.4564 101.743 85.195L101.431 59.4689C101.431 52.2075 95.4148 46.2946 88.1534 46.3983Z" fill="#EBBB53"/>
</svg>
