<svg width="203" height="137" viewBox="0 0 203 137" fill="none"
  xmlns="http://www.w3.org/2000/svg">
  <path d="M14.1281 0.702148V23.1542H0.111084L9.16633 108.993H15.6166H139.041L154.05 136.531L169.06 108.993H202.179V0.702148H14.1281ZM199.202 106.016H167.323L154.05 130.329L140.777 106.016H17.1052V3.67921H199.202V106.016Z" fill="#0F3753"/>
  <path d="M199.202 106.016H167.323L154.05 130.328L140.777 106.016H17.1051V3.67912H199.202V106.016Z" fill="white"/>
  <path d="M104.681 81.8274C104.681 84.9285 102.076 87.5334 98.9746 87.5334H29.7578C26.6567 87.5334 24.0518 84.9285 24.0518 81.8274V63.4688C24.0518 60.3677 26.6567 57.7628 29.7578 57.7628H98.9746C102.076 57.7628 104.681 60.3677 104.681 63.4688V81.8274Z" fill="#D0172C"/>
  <path d="M50.2253 76.4934C48.9848 80.2147 45.1395 83.1918 40.4258 83.1918C34.2236 83.1918 29.6339 78.354 29.6339 72.3999C29.6339 66.6939 33.9755 61.7321 40.4258 61.7321C46.0078 61.7321 49.2329 65.7015 50.2253 68.5545H46.752C46.1318 67.19 44.0231 64.7091 40.3017 64.7091C35.9602 64.7091 32.8591 68.3064 32.8591 72.524C32.8591 76.8655 35.9602 80.3387 40.3017 80.3387C44.2712 80.3387 46.2559 77.3617 46.628 76.6174H50.2253V76.4934Z" fill="white"/>
  <path d="M51.8376 72.5241C51.8376 66.0738 56.7994 61.7323 62.6295 61.7323C68.8317 61.7323 73.4214 66.446 73.4214 72.4001C73.4214 78.3542 68.7077 83.0679 62.5055 83.0679C56.4273 83.0679 51.8376 78.2302 51.8376 72.5241ZM55.1868 72.4001C55.1868 76.7416 58.412 80.2149 62.7536 80.2149C67.2192 80.2149 70.1962 76.4936 70.1962 72.4001C70.1962 68.3066 67.2192 64.5853 62.6295 64.5853C58.1639 64.5853 55.1868 68.1826 55.1868 72.4001Z" fill="white"/>
  <path d="M76.5233 82.6959V62.1045H80.9889L87.4392 78.1063L93.7655 62.1045H98.2311V82.8199H95.13L95.254 65.4537L88.4316 82.8199H86.3228L79.5004 65.4537L79.6244 82.8199H76.5233V82.6959Z" fill="white"/>
  <path d="M141.522 87.4093C140.902 87.4093 139.91 87.4093 139.91 86.541C139.91 85.7967 141.15 85.5486 141.646 85.4246C144.499 84.6803 145.988 84.3082 147.104 81.3311C147.849 79.2223 148.097 67.5622 148.097 64.4611V63.4687V37.4194C148.097 27.7439 147.228 26.1313 143.011 25.3871C140.034 24.7668 139.786 24.5188 139.786 24.0226C139.786 23.1543 140.778 23.1543 141.77 23.1543H169.556C176.379 23.4024 192.132 24.6428 192.132 39.9003C192.132 56.8943 171.045 56.8943 164.47 56.8943C161.245 56.8943 158.888 56.6463 156.656 56.6463C156.78 58.3829 156.16 66.0736 156.16 67.5622C156.16 82.3235 157.152 82.9437 159.633 84.4322C160.873 85.1765 161.493 85.3005 163.974 85.6727C164.346 85.6727 165.215 85.9207 165.215 86.541C165.215 87.1612 164.47 87.2852 164.098 87.2852C162.982 87.4093 160.377 87.4093 159.261 87.4093H141.522ZM164.843 54.9096C166.579 54.9096 174.27 54.7856 178.488 50.32C180.72 47.8391 182.705 42.7533 182.705 38.2877C182.705 25.263 169.184 25.3871 165.339 25.3871C160.749 25.3871 158.888 25.7592 156.78 26.2554C156.78 28.2401 157.028 37.9156 157.028 40.1483C157.028 42.2571 156.78 52.4287 156.78 54.6615C157.772 54.7856 164.346 54.9096 164.843 54.9096Z" fill="#0F3753"/>
  <path d="M48.8601 51.0685H41.2934C40.6732 51.0685 38.4404 50.9444 36.2076 50.9444C33.9748 50.9444 31.618 50.8204 30.8737 50.8204C30.0054 50.8204 26.5321 51.0685 25.1676 51.0685C24.2993 51.0685 24.1753 50.6963 24.1753 50.4483C24.1753 49.9521 24.7955 49.9521 24.9196 49.9521C26.036 49.9521 26.6562 50.0761 27.7726 48.8357C28.5168 47.9674 28.5168 38.2919 28.5168 34.9427V29.6088C28.5168 25.8875 28.2688 24.7711 26.4081 24.523C25.0436 24.2749 24.9196 24.2749 24.9196 23.7787C24.9196 23.1585 25.4157 23.1585 25.6638 23.1585C26.5321 23.1585 30.2535 23.2825 30.9977 23.2825C36.0836 23.2825 41.0453 23.2825 46.1312 23.2825H47.6197C47.8678 24.2749 48.9842 29.3607 48.9842 29.8569C48.9842 30.229 48.612 30.4771 48.364 30.4771C47.9918 30.4771 47.7437 30.105 47.6197 29.8569C44.7667 25.7634 43.03 24.7711 38.5644 24.7711C36.7038 24.7711 35.9595 24.8951 34.8431 25.0192C34.3469 28.9886 34.471 34.3225 34.471 35.687C39.0606 35.811 39.6808 35.3148 41.2934 32.0897C41.2934 31.9656 41.5415 31.4695 41.5415 31.3454C41.6656 31.2214 41.7896 31.2214 41.9136 31.2214C42.4098 31.2214 42.5339 31.5935 42.5339 31.7176C42.5339 31.8416 42.5339 31.9656 42.5339 32.0897C42.2858 33.3301 42.2858 38.2919 42.2858 39.9045C42.2858 40.1526 42.4098 41.5171 42.4098 41.8892C42.4098 42.2613 41.9136 42.5094 41.7896 42.5094C41.2934 42.5094 41.1694 42.0132 41.0453 41.393C40.177 37.4236 36.3316 37.4236 34.471 37.4236C34.3469 38.9121 34.3469 43.0056 34.3469 44.246C34.3469 48.0914 34.2229 49.828 38.6885 49.828C42.6579 49.828 47.3716 48.5876 49.2323 44.7422C49.4804 44.246 49.7284 43.998 49.9765 43.998C50.7208 43.998 50.7208 44.3701 50.4727 45.1144L48.8601 51.0685Z" fill="#0F3753"/>
  <path d="M55.1871 30.5965C55.1871 24.5183 54.1947 24.3943 51.8379 24.1462C51.3417 24.0221 51.2177 23.65 51.2177 23.526C51.2177 23.0298 51.8379 22.9057 52.086 22.9057C52.3341 22.9057 53.5745 22.9057 54.8149 22.9057C56.1794 22.9057 57.5439 23.0298 58.2882 23.0298C58.9084 23.0298 60.2729 23.0298 61.5133 22.9057C62.7538 22.9057 63.8702 22.7817 64.1183 22.7817C64.6144 22.7817 65.2347 22.7817 65.2347 23.4019C65.2347 24.0221 64.6144 24.0221 64.3664 24.0221C63.0019 24.0221 62.3816 24.5183 62.0095 25.3866C61.0172 27.3713 61.0172 33.3255 61.0172 35.8064C61.0172 42.3807 61.3893 43.8693 62.2576 45.2337C63.8702 47.8387 66.9713 48.2108 68.956 48.2108C76.0265 48.2108 76.3987 43.4971 76.3987 32.085C76.3987 28.7358 76.3987 24.3943 73.5456 24.0221C72.1812 23.7741 72.0571 23.7741 72.0571 23.2779C72.0571 22.6577 72.9254 22.6577 73.0495 22.6577C73.4216 22.6577 74.1659 22.6577 75.0342 22.7817C75.9025 22.7817 76.6468 22.9057 77.391 22.9057C78.0112 22.9057 80.7402 22.7817 81.2364 22.7817C81.4845 22.7817 82.2288 22.7817 82.2288 23.4019C82.2288 23.8981 81.8566 23.8981 81.4845 23.8981C80.8643 23.8981 79.0036 24.6424 78.6315 26.8752C78.2593 29.232 78.2593 39.6517 78.1353 41.7605C77.8872 44.3654 77.267 47.5906 73.1735 49.6993C70.8167 50.8157 67.8396 50.9398 66.4751 50.9398C55.6832 50.9398 54.939 45.978 54.939 41.6364L55.1871 30.5965Z" fill="#0F3753"/>
  <path d="M94.5091 44.1179C94.5091 47.9633 94.7572 49.3278 96.866 49.5759C98.3545 49.6999 98.4786 49.824 98.4786 50.3202C98.4786 50.8163 97.8583 50.8163 97.4862 50.8163C96.99 50.8163 95.6255 50.8163 94.2611 50.6923C92.8966 50.6923 91.6561 50.5683 91.1599 50.5683C90.7878 50.5683 89.5474 50.5683 88.3069 50.6923C87.1905 50.8163 85.9501 50.8163 85.5779 50.8163C85.3299 50.8163 84.7096 50.8163 84.7096 50.1961C84.7096 49.6999 85.3299 49.5759 85.4539 49.5759C88.1829 49.5759 88.555 48.3355 88.555 43.9939V30.349C88.555 26.0075 88.555 24.1468 85.3299 24.1468C85.0818 24.1468 84.4615 24.1468 84.4615 23.5266C84.4615 22.9064 85.2058 22.7823 85.702 22.7823C90.1676 22.7823 91.284 22.7823 92.5244 22.7823C97.3622 22.4102 97.7343 22.5342 98.9747 22.5342C105.425 22.5342 109.022 25.3872 109.022 29.3567C109.022 30.8452 108.65 32.8299 105.921 34.6906C103.688 36.1791 101.828 36.3031 100.091 36.4272V36.6753C104.929 37.5436 106.541 39.2802 107.534 43.6218C108.278 46.7229 108.898 49.4519 112.123 49.6999C112.496 49.6999 113.116 49.824 113.116 50.3202C113.116 50.9404 112.496 50.9404 111.627 50.9404C110.387 50.9404 104.681 50.6923 103.564 50.6923C103.068 50.0721 102.324 49.2038 101.828 46.2267C100.835 39.2802 99.9671 36.9234 94.5091 37.2955V44.1179ZM94.5091 35.807C97.9824 35.931 102.324 34.9387 102.324 29.7288C102.324 26.2556 100.091 24.1468 96.7419 24.1468C95.7496 24.1468 95.0053 24.3949 94.3851 24.5189V35.807H94.5091Z" fill="#0F3753"/>
  <path d="M143.135 36.3033C143.135 43.6219 137.056 51.3126 127.877 51.3126C119.814 51.3126 113.612 45.7306 113.612 37.4197C113.612 32.83 115.225 29.853 117.706 27.3721C120.435 24.519 123.908 22.7824 128.621 22.7824C138.669 22.6584 143.135 30.2251 143.135 36.3033ZM128.373 24.1469C125.892 24.1469 120.683 26.0076 120.683 36.9235C120.683 47.2192 125.148 49.7001 128.373 49.7001C130.482 49.7001 135.94 48.3356 135.94 36.9235C135.94 26.1316 131.102 24.1469 128.373 24.1469Z" fill="#0F3753"/>
</svg>
